<?xml version="1.0" encoding="UTF-8"?><svg id="_レイヤー_1" xmlns="http://www.w3.org/2000/svg" viewBox="0 0 211.23 117.69"><defs><style>.cls-1{fill:#c81528;}.cls-2{fill:#b5b5b6;}.cls-3{fill:#231815;}</style></defs><g><path class="cls-1" d="M165.95,38.02c4.08,4.06,7.12,9.62,6.07,15.8-1.98,9.47-9.67,16.24-18.89,18.19-.79,.19-5.23,.93-8.69,.93h-25.74l12.24-48.8,20.69-7.13-10.23,40.89c7.7-.11,12.87-5.94,12.45-11.29-.43-5.37-3.01-8.13-6.41-9.67,.8-.29,12.14-7.53,9.78-15.01-2.49-7.49-13.86-6.49-20.46-4.77-5,1.05-14.97,4.15-18.3,5.59l-12.58,50.18h-19.66l10.48-41.84c-.24-.01-15.63,7-15.63,7l5.25-21.13c6.05-2.75,31.76-13.13,48.23-15.84,22.2-3.64,36.24,2.75,40.2,13.65,3.95,10.9-1.66,19.33-8.8,23.24Z"/><path class="cls-1" d="M58.87,30.86l-4.24,16.93c-2.19,8.69-8.18,17.48-19.42,17.86l-5.26,20.97c1.9,0,10.93-.99,18.96-4.19,12.66-5.27,22.35-14.61,25.85-29.49l8.73-34.87c-.36,.18-17.71,8.42-24.58,12.63l-.04,.15Z"/><path class="cls-2" d="M66.59,0l-7.69,30.71c6.87-4.21,24.22-12.46,24.58-12.63L88.02,0h-21.44Z"/></g><g><path class="cls-3" d="M4.93,112.47c-.71,1.44-1.83,3.31-3.67,4.82l-1.26-1.17c1.56-1.17,2.42-2.21,3.41-4.05l1.53,.41Zm14.27-14.56c1.2,.32,2.45,.96,2.96,1.28l-.76,.89h1.93l-.31,1.49h-6.14c-.06,.98-.15,2.89,.18,4.37,1.39-1.53,2.04-2.72,2.45-3.46l1.51,.51c-.56,.95-1.51,2.61-3.41,4.58,.12,.26,.79,1.76,1.43,1.76,.74,0,1.22-1.45,1.64-2.72l1.4,.72c-.81,2.1-1.68,3.91-3.12,3.91s-2.32-1.68-2.69-2.42c-1.5,1.27-2.58,1.85-3.42,2.31l-.92-1.25H5.59l.97-4.56h6.79l-.87,4.1c1.63-.87,2.63-1.68,3.17-2.12-.54-1.74-.61-3.63-.46-5.73H6.25l-.71,3.36c-.48,2.25-1.44,4.9-3.09,6.75l-1.35-1.12c.82-.85,2.02-2.12,2.89-6.22l.9-4.25H15.31c.09-.74,.21-1.38,.33-2.04h1.74c-.11,.61-.22,1.15-.32,2.04h3.46c-.3-.17-1.06-.59-2.29-1l.99-1.17Zm-11.29,14.63l-.59,2.8c-.06,.3,.17,.4,.45,.4h4.35c.83,0,1.09-.61,1.75-2.34l1.59,.43c-1.04,2.8-1.66,3.54-3.15,3.54H6.76c-.3,0-1.59,0-1.31-1.34l.74-3.5h1.72Zm6.42-9.77l-.28,1.31H6.43l.28-1.31h7.62Zm-2.74,3.8h-3.8l-.44,2.08h3.8l.44-2.08Zm-1.71,3.78c.45,.25,1.33,.72,2.77,2.27l-1.3,1.32c-.48-.66-1.64-1.76-2.74-2.4l1.27-1.19Zm7.55,1.02c1.16,1.25,2.18,3.12,2.72,4.52l-1.82,1.06c-.53-1.72-1.58-3.48-2.43-4.65l1.53-.93Z"/><path class="cls-3" d="M37.85,104.02l.36-1.7h1.91l.92-4.33h1.72l-.92,4.33h3.86c-.62,2.93-2.14,9.79-3.01,12.31-.86,2.46-1.55,3.04-3.25,3.04h-2.14l.03-1.72,2.07,.04c.82,.02,1.16-.34,1.44-1.19,.97-2.76,2.23-7.92,2.84-10.79h-2.19c-.35,1.66-1.14,4.69-2.57,7.83-1.48,3.29-3.35,5.09-4.13,5.84l-1.3-1.08c.18-.17,.44-.45,.56-.55-2.27,.4-7.32,.91-10.57,1.08l.13-1.59c.87-.02,2.37-.08,5.05-.3l.37-1.74h-4.46l.28-1.32h4.46l.28-1.34h-4.27l1.48-6.96h4.27l.25-1.21h-4.94l.28-1.34h4.95l.27-1.27c-2.62,.15-3.62,.17-4.46,.19l-.02-1.32c4.04-.04,6.77-.28,9.88-.95l.43,1.29c-.82,.17-2,.42-4.3,.66l-.3,1.4h4.86l-.28,1.34h-4.86l-.26,1.21h4.33l-1.47,6.96h-4.33l-.28,1.34h4.58l-.28,1.32h-4.59l-.34,1.62c1.51-.13,3.26-.36,4.7-.55l-.16,.72c1.75-2.04,2.56-3.57,3.59-6.43,.35-.93,.98-2.71,1.43-4.84h-1.91Zm-7.65,3.93h-2.72l-.35,1.68h2.72l.36-1.68Zm.59-2.8h-2.72l-.35,1.65h2.72l.35-1.65Zm3.67,2.8h-2.76l-.36,1.68h2.76l.36-1.68Zm.59-2.8h-2.76l-.35,1.65h2.76l.35-1.65Z"/><path class="cls-3" d="M56.81,115.08c4.88-1.46,6.9-4.6,7.47-7.3,.33-1.53,.65-5.88-4.56-6.45-.79,2.33-2.54,7.37-5.19,11.25-1.97,2.89-3.15,2.95-3.68,2.95-1.97,0-3.54-2.95-2.72-6.79,1.12-5.29,5.93-9.15,11.26-9.15s7.84,3.4,6.81,8.26c-.52,2.44-2.35,6.79-8.66,8.81l-.73-1.57Zm-6.88-6.28c-.6,2.82,.37,4.78,1.26,4.78,.68,0,1.56-1.36,2.22-2.38,1.02-1.59,2.64-4.46,4.45-9.81-4.44,.62-7.24,4.1-7.94,7.41Z"/><path class="cls-3" d="M87.62,106.4c-6.33,.11-10.7,3.29-11.19,5.65-.29,1.38,.62,1.98,1.86,2.34,1.06,.32,2.44,.43,3.76,.4l-.8,1.85c-1.44-.02-7.61-.13-6.71-4.41,.64-3.02,4.27-4.71,5.73-5.39-3.06,.51-6.45,1.08-10.88,2.04l.16-1.87c.65-.09,4.35-.6,4.68-.64l8.38-5.2c-3.48,.4-5.62,.49-8.62,.61l.13-1.83c2.47,.04,7.15,0,11.3-.53l.44,1.42-8.23,5.05c4.64-.64,5.2-.7,10.21-1.28l-.23,1.78Z"/><path class="cls-3" d="M95.68,99.46c-.62,1.44-2.35,5.39-3.28,9.74-.75,3.54-.64,5.86-.56,6.96l-1.89,.32c-.06-.83-.23-3.21,.63-7.28,.75-3.53,1.95-6.92,3.27-10.02l1.83,.28Zm8.1-.34h1.82l-.73,3.97c.28-.02,1.64-.13,3.47-.34l-.37,1.83c-.59,.06-2,.21-3.39,.3l-1.1,5.8c1.52,.66,2.49,1.19,3.62,2.12l-1.17,1.72c-1.09-.98-1.69-1.34-2.86-1.93-.35,1.53-.91,3.99-4.97,3.99-2.31,0-4.12-1.17-3.65-3.4,.27-1.25,1.49-3.33,4.91-3.33,.89,0,1.44,.11,2.38,.3l.95-5.18c-.51,.02-2.39,.07-2.82,.07-1.82,0-2.86-.04-3.49-.07l.38-1.8c1.23,.02,2.47,.07,3.91,.07,1.29,0,2.19-.02,2.34-.04l.75-4.05Zm-4.78,12.36c-2.04,0-2.72,1.02-2.86,1.68-.2,.95,.5,1.76,2.22,1.76,2.46,0,2.75-1.27,3.07-3.05-.76-.24-1.58-.38-2.43-.38Zm8.95-14.25c.43,1.36,.59,2.55,.69,4.25l-1.7,.59c-.01-1.74-.16-2.74-.55-4.29l1.56-.55Zm3.33-.17c.46,1.44,.58,2.48,.69,4.27l-1.69,.57c-.03-1.76-.16-2.76-.56-4.29l1.56-.55Z"/><path class="cls-3" d="M117.87,99.73c-.63,1.38-2.37,5.27-3.34,9.83-.68,3.23-.68,5.39-.66,6.54l-1.86,.25c-.12-2.23,.21-4.52,.7-6.81,.99-4.67,2.57-8.41,3.25-10.02l1.91,.21Zm10.23,15.24c-.88,.13-2.65,.38-4.73,.38-2.99,0-6.29-.36-5.63-3.46,.23-1.1,.85-2.02,1.7-2.93l1.54,.34c-.4,.4-1.21,1.21-1.44,2.27-.31,1.46,1.1,1.91,3.9,1.91,2.46,0,4.23-.34,5.09-.49l-.44,1.97Zm-7.32-13.56c1.09-.11,3.3-.34,6.02-.34,1.65,0,2.61,.09,3.41,.15l-.44,1.87c-.48-.04-1.67-.15-3.56-.15-2.7,0-4.65,.23-5.86,.4l.43-1.93Z"/><path class="cls-3" d="M133.76,111.33c1.17,.91,2.53,2.1,3.89,4.18l-1.67,1.38c-.91-1.51-2.03-2.76-3.7-4.18l1.48-1.38Z"/><path class="cls-3" d="M148.86,100.56c-.77,1.91-1.36,3.8-1.77,5.75-1.05,4.95-.19,7.69,.98,7.69,1.48,0,3.77-4.48,3.86-4.67l1.37,1.02c-.83,1.53-1.72,2.82-2.52,3.76-.7,.83-1.81,2.04-3.21,2.04-1.91,0-3.86-2.84-2.33-10.02,.42-2,1-3.91,1.75-5.88l1.87,.32Zm10.19,12.31c.83-3.71,.69-7.45-1.04-10.34l1.73-.96c1.44,2.25,2.47,5.8,1.38,10.74l-2.07,.55Z"/><path class="cls-3" d="M171.25,101.73c.98-.21,2.96-.66,5.06-.66,4.25,0,6.55,2.55,5.7,6.58-1.67,7.9-11.18,7.98-14.05,8l-.05-1.97c1.87,.08,10.76,.3,12.11-6.05,.54-2.57-.68-4.71-4.05-4.71-2.33,0-5.57,.77-10.92,2.25l-.23-2.02,6.44-1.42Z"/><path class="cls-3" d="M193.29,98.63l1.78,.32-1.54,3.65c2.36,0,3.96-.13,5.01-.21l-.68,1.85c-2.32,.11-2.87,.11-5.06,.11l-1.34,3.2c1.42,.02,4.01-.08,5.45-.17l-.7,1.89c-3.17,.13-5.39,.06-5.49,.06-.45,1.23-.6,1.93-.64,2.12-.59,2.76,1.53,3.4,3.72,3.4,1.46,0,5-.34,5.7-3.67,.35-1.63-.13-2.89-.37-3.46l1.91-.62c.75,2.06,.41,3.68,.32,4.12-.79,3.72-3.84,5.41-7.92,5.41-3.31,0-6.02-1.25-5.18-5.22,.15-.73,.45-1.64,.64-2.12-.72-.02-2.68-.07-3.78-.51l.71-1.82c1.11,.38,2.13,.44,3.79,.55l1.32-3.21c-2.48-.11-3.39-.34-3.88-.45l.7-1.8c.54,.15,1.61,.42,3.91,.51l1.62-3.93Z"/><path class="cls-3" d="M211.16,113.57c-.37,1.76-2.11,3.16-3.83,3.16s-2.88-1.42-2.52-3.16c.37-1.74,2.11-3.16,3.86-3.16s2.87,1.38,2.49,3.16Zm-5.22,0c-.24,1.13,.5,2.04,1.63,2.04s2.23-.91,2.47-2.04c.24-1.12-.48-2.04-1.61-2.04s-2.25,.91-2.49,2.04Z"/></g></svg>